<?xml version="1.0" encoding="utf-8"?>
<!-- Generator: Adobe Illustrator 27.4.1, SVG Export Plug-In . SVG Version: 6.00 Build 0)  -->
<svg version="1.1" id="Layer_1" xmlns="http://www.w3.org/2000/svg" xmlns:xlink="http://www.w3.org/1999/xlink" x="0px" y="0px"
	 viewBox="0 0 300 135" style="enable-background:new 0 0 300 135;" xml:space="preserve">
<g transform="translate(0.000000,135.000000) scale(0.100000,-0.100000)">
	<path d="M929,960c-100-18-184-72-219-141c-28-53-26-132,3-184c25-44,97-98,155-116s210-22,267-7c44,12,53,18,73,58
		c27,54,11,68-25,21c-39-49-78-64-163-64c-83,0-126,14-179,59c-83,69-94,208-23,288c35,39,112,66,190,66c91,0,135-18,163-65
		c27-45,39-35,32,26c-5,45-7,47-44,53C1085,966,975,969,929,960z"/>
	<path d="M207,953c-14-14-6-22,26-25l32-3l3-184c3-191-1-211-39-211c-11,0-19-5-19-11c0-7,49-10,158-7c140,3,162,6,199,26
		c77,41,93,120,35,175c-15,15-42,30-60,33c-40,8-41,18-2,34c36,15,50,37,50,77c0,75-70,103-255,103C268,960,210,957,207,953z
		 M491,901c66-67,11-141-106-141h-45v85v85h61C455,930,465,927,491,901z M472,730c74-21,113-109,68-157c-42-46-159-56-187-17
		c-8,11-13,49-13,101v83h48C414,740,452,735,472,730z"/>
	<path d="M1734,949c-3-5,4-9,16-9s30-5,41-10c18-10,19-23,19-193c0-194-3-207-47-207c-13,0-23-4-23-10s43-10,110-10s110,4,110,10
		s-13,10-28,10c-49,0-52,10-52,201c0,193,4,209,56,209c13,0,24,4,24,9C1960,960,1741,960,1734,949z"/>
	<path d="M2038,949c-12-8-3-14,35-23l27-6V737c0-193-3-207-46-207c-13,0-25-4-28-9c-8-12,269-21,338-10c109,18,196,72,230,143
		c25,52,21,131-9,182c-53,91-172,127-398,122C2111,957,2044,953,2038,949z M2381,920c194-54,200-315,10-379c-19-6-64-11-101-11
		c-53,0-73,4-94,21l-26,20v180v179h88C2306,930,2361,925,2381,920z"/>
	<path d="M1520,867c-147-61-261-192-247-285c10-61,36-77,120-76c74,1,130,20,187,64c42,32,13,35-50,5c-66-32-119-37-145-15
		c-14,11-16,24-12,62c8,61,12,68,44,68c44,0,175,39,228,68c27,15,56,40,65,55c14,27,14,29-13,53C1660,897,1595,898,1520,867z
		 M1634,847c8-12,5-22-12-40c-38-41-202-111-219-94c-15,15,116,125,172,145C1611,870,1620,869,1634,847z"/>
</g>
</svg>
