<svg version="1.2" xmlns="http://www.w3.org/2000/svg" xmlns:xlink="http://www.w3.org/1999/xlink" overflow="visible" preserveAspectRatio="none" viewBox="0 0 62.22971 49.34801" width="62.22971" height="49.34801"><g transform="translate(0, 0)"><g transform="translate(-3.552713678800501e-15, 0) rotate(0)"><path style="stroke-width: 0; stroke-linecap: butt; stroke-linejoin: miter; fill: rgb(26, 90, 150);" d="M57.0439,0h-51.85809c-2.82627,0.10966 -5.08209,2.49482 -5.18581,5.48311v38.38179c0.10372,2.9883 2.35954,5.37345 5.18581,5.48311h51.85809c2.82627,-0.10966 5.08209,-2.49482 5.18581,-5.48311v-38.38179c-0.10372,-2.9883 -2.35954,-5.37345 -5.18581,-5.48311zM57.0439,43.86491h-51.85809v-38.38179h51.85809zM36.30066,38.38179v-3.42695c0,-4.55098 -8.6603,-6.85389 -12.96452,-6.85389c-4.30422,0 -12.96452,2.30291 -12.96452,6.85389v3.42695h25.92905zM23.33614,10.96623c-3.58005,0 -6.48226,3.06859 -6.48226,6.85389c0,3.7853 2.90221,6.85389 6.48226,6.85389c3.58005,0 6.48226,-3.06859 6.48226,-6.85389c0,-3.7853 -2.90221,-6.85389 -6.48226,-6.85389zM36.30066,10.96623v2.74156h15.55743v-2.74156zM36.30066,16.44934v2.74156h15.55743v-2.74156zM36.30066,21.93245v2.74156h10.37162v-2.74156z" vector-effect="non-scaling-stroke"/></g><defs><path id="path-170242341102647" d="M57.0439,0h-51.85809c-2.82627,0.10966 -5.08209,2.49482 -5.18581,5.48311v38.38179c0.10372,2.9883 2.35954,5.37345 5.18581,5.48311h51.85809c2.82627,-0.10966 5.08209,-2.49482 5.18581,-5.48311v-38.38179c-0.10372,-2.9883 -2.35954,-5.37345 -5.18581,-5.48311zM57.0439,43.86491h-51.85809v-38.38179h51.85809zM36.30066,38.38179v-3.42695c0,-4.55098 -8.6603,-6.85389 -12.96452,-6.85389c-4.30422,0 -12.96452,2.30291 -12.96452,6.85389v3.42695h25.92905zM23.33614,10.96623c-3.58005,0 -6.48226,3.06859 -6.48226,6.85389c0,3.7853 2.90221,6.85389 6.48226,6.85389c3.58005,0 6.48226,-3.06859 6.48226,-6.85389c0,-3.7853 -2.90221,-6.85389 -6.48226,-6.85389zM36.30066,10.96623v2.74156h15.55743v-2.74156zM36.30066,16.44934v2.74156h15.55743v-2.74156zM36.30066,21.93245v2.74156h10.37162v-2.74156z" vector-effect="non-scaling-stroke"/></defs></g></svg>